<svg width="100" height="100" viewBox="0 0 100 100" fill="none" xmlns="http://www.w3.org/2000/svg">
<g clip-path="url(#clip0_14_347)">
<path fill-rule="evenodd" clip-rule="evenodd" d="M32.8036 62.8115H44.0432L38.0216 74.0506H26.7821L32.8036 62.8115ZM15.7235 25.9494H36.8326L25.5204 47.0574H4.4118L15.7235 25.9494V25.9494ZM25.4757 47.0823H41.2195L32.7829 62.8266H17.0381L25.4757 47.0823V47.0823ZM48.7689 33.0153H62.8203L55.2906 47.0662H41.2402L48.7689 33.0153V33.0153ZM66.6008 25.9577H73.6589L69.8764 33.0153H62.8203L66.6008 25.9577Z" fill="#060507"/>
<path fill-rule="evenodd" clip-rule="evenodd" d="M46.6766 49.3915L46.0592 50.4513C46.5443 50.0296 47.0232 49.7173 47.4979 49.5087C47.9746 49.2955 48.4457 49.1896 48.911 49.1881C49.82 49.1881 50.3133 49.6088 50.3922 50.4513C50.899 50.0296 51.3872 49.7173 51.8552 49.5087C52.3283 49.2955 52.7802 49.1896 53.2201 49.1881C53.7965 49.1881 54.2001 49.3287 54.4279 49.6088C54.6608 49.89 54.7225 50.2355 54.6141 50.6443C54.5078 51.0474 54.2131 51.7068 53.7316 52.6225L49.5471 60.5553H46.2491L50.0877 53.2782C50.5898 52.3242 50.8674 51.7354 50.9182 51.5107C50.9769 51.2819 50.8897 51.1662 50.6526 51.1662C50.4124 51.1662 50.1971 51.2788 50.0057 51.5029C49.8189 51.7276 49.4744 52.3195 48.9676 53.2782L45.1301 60.5553H41.8321L45.5726 53.4634C46.1485 52.3688 46.4665 51.7136 46.5267 51.4931C46.591 51.2757 46.5038 51.1657 46.2616 51.1657C46.1106 51.1657 45.9503 51.2243 45.7827 51.3421C45.6167 51.4552 45.4829 51.5953 45.3838 51.7634C45.2863 51.9263 45.0959 52.2759 44.8121 52.8144L40.7297 60.5548H37.4318L43.3195 49.3904H46.6766V49.3915V49.3915ZM62.2455 53.3114L60.8048 56.0465C60.2741 57.0504 59.8342 57.7881 59.4845 58.2597C59.138 58.725 58.6913 59.1629 58.1439 59.5717C57.6146 59.9687 57.0219 60.2733 56.391 60.4728C55.7641 60.6646 55.1119 60.7609 54.4564 60.7587C53.7036 60.7587 53.1117 60.6767 52.6749 60.5143C52.2412 60.3457 51.9678 60.0967 51.85 59.7657C51.7405 59.429 51.7488 59.0244 51.8744 58.5533C52.002 58.0776 52.3153 57.3653 52.8165 56.4164L54.3241 53.5558C54.8714 52.5177 55.4115 51.7068 55.9432 51.1237C56.4729 50.5411 57.1256 50.0737 57.897 49.7198C58.6648 49.3655 59.5053 49.1886 60.4142 49.1886C61.1773 49.1886 61.7698 49.3043 62.1916 49.5346C62.6232 49.7593 62.8919 50.0529 62.9972 50.4181C63.1015 50.7823 63.1057 51.1595 63.0092 51.5455C62.9153 51.9315 62.6621 52.5208 62.2455 53.3114ZM59.2889 52.471C59.5909 51.8993 59.7491 51.5387 59.7641 51.3935C59.7833 51.242 59.691 51.1662 59.4897 51.1662C59.2868 51.1662 59.1125 51.242 58.9657 51.3935C58.822 51.5387 58.5979 51.8998 58.297 52.471L55.6392 57.5111C55.3617 58.0392 55.2128 58.3831 55.1936 58.5455C55.1785 58.7032 55.2693 58.7816 55.466 58.7816C55.6688 58.7816 55.8379 58.7089 55.9754 58.5626C56.1212 58.4163 56.3188 58.103 56.5741 57.6205L59.2889 52.471ZM69.8188 47.9015L68.8917 49.6592H69.809L68.8767 51.4267H67.9595L64.8104 57.4011C64.4213 58.1362 64.2429 58.545 64.2714 58.629C64.3046 58.7131 64.6008 58.7556 65.1559 58.7556L64.2065 60.5553H62.8354C62.0603 60.5553 61.5244 60.5252 61.2245 60.463C60.9309 60.396 60.7177 60.2477 60.5854 60.0173C60.4578 59.7823 60.4406 59.5162 60.5366 59.2194C60.6347 58.9165 60.9765 58.2088 61.5633 57.0981L64.5526 51.4267H63.8211L64.7533 49.6592H65.4848L66.4119 47.9015H69.8188V47.9015ZM76.339 53.3114L74.8973 56.0465C74.3676 57.0504 73.9287 57.7881 73.579 58.2597C73.2325 58.725 72.7858 59.1629 72.2395 59.5717C71.7091 59.9683 71.1158 60.2729 70.4844 60.4728C69.8681 60.6627 69.2238 60.7587 68.5509 60.7587C67.7992 60.7587 67.2051 60.6767 66.7673 60.5143C66.3357 60.3457 66.0602 60.0967 65.9445 59.7657C65.8361 59.429 65.8444 59.0244 65.9678 58.5533C66.0955 58.0776 66.4109 57.3653 66.91 56.4164L68.4186 53.5558C68.9659 52.5177 69.5049 51.7068 70.0377 51.1237C70.5695 50.5411 71.2201 50.0737 71.9894 49.7198C72.7593 49.3655 73.5977 49.1886 74.5066 49.1886C75.2708 49.1886 75.8632 49.3043 76.2871 49.5346C76.7167 49.7593 76.9854 50.0529 77.0917 50.4181C77.196 50.7823 77.2002 51.1595 77.1026 51.5455C77.0108 51.9315 76.7566 52.5208 76.339 53.3114V53.3114ZM73.3845 52.471C73.6854 51.8993 73.8436 51.5387 73.8607 51.3935C73.8758 51.242 73.7855 51.1662 73.5842 51.1662C73.3803 51.1662 73.207 51.242 73.0592 51.3935C72.9155 51.5387 72.6924 51.8998 72.3905 52.471L69.7327 57.5111C69.4551 58.0392 69.3062 58.3831 69.2891 58.5455C69.273 58.7032 69.3644 58.7816 69.5594 58.7816C69.7612 58.7816 69.9314 58.7089 70.0699 58.5626C70.2146 58.4163 70.4144 58.103 70.6686 57.6205L73.3845 52.471V52.471Z" fill="#BF1A4C"/>
<path fill-rule="evenodd" clip-rule="evenodd" d="M87.2683 49.3915L82.733 57.9905C82.1208 59.1515 81.6954 59.9038 81.4594 60.2467C81.2316 60.5818 80.8555 60.9387 80.3326 61.3144C79.8055 61.6957 79.1985 61.9852 78.5127 62.1807C77.8278 62.3841 77.0455 62.4842 76.1662 62.4842C75.0819 62.4842 74.3099 62.2985 73.8498 61.9286C73.3855 61.5649 73.4264 60.8433 73.9722 59.7668H77.2701C77.0097 60.2602 77.0595 60.5071 77.418 60.5071C77.6753 60.5071 77.886 60.4314 78.0515 60.2799C78.2144 60.1294 78.4245 59.8114 78.6797 59.3284L79.1228 58.4875C78.6911 58.7515 78.2766 58.9507 77.8813 59.0856C77.4901 59.2205 77.1192 59.2869 76.7659 59.2869C76.1537 59.2869 75.7143 59.164 75.4456 58.9175C75.1841 58.6706 75.085 58.3469 75.1488 57.9495C75.2157 57.5453 75.4445 56.9726 75.8347 56.2328L77.9747 52.1779C78.5329 51.1165 79.1259 50.3544 79.752 49.8875C80.3603 49.4296 81.1022 49.1843 81.8635 49.1892C82.2889 49.1892 82.6298 49.2769 82.8871 49.4506C83.1486 49.625 83.325 49.8854 83.4168 50.233L84.1037 49.392H87.2683V49.3915V49.3915ZM82.2983 52.3517C82.568 51.8418 82.7076 51.517 82.7195 51.3759C82.7377 51.2353 82.6453 51.1663 82.444 51.1663C82.2474 51.1663 82.0643 51.2483 81.8957 51.4106C81.7317 51.5678 81.5279 51.8817 81.2794 52.3517L79.3017 56.1067C79.0371 56.6043 78.8966 56.9301 78.8784 57.0826C78.8634 57.2273 78.9536 57.2999 79.1497 57.2999C79.3749 57.2999 79.5674 57.2102 79.7292 57.0312C79.8911 56.8512 80.1396 56.445 80.4742 55.81L82.2983 52.3517ZM91.9545 49.3915L91.3761 50.3751C91.8897 49.9777 92.3794 49.6794 92.8484 49.4833C93.3163 49.2877 93.7656 49.1902 94.1983 49.1887C94.7243 49.1887 95.1041 49.3318 95.335 49.6187C95.5741 49.8999 95.6441 50.2247 95.5435 50.5941C95.4444 50.9645 95.1596 51.5933 94.6922 52.4804L92.2118 57.1827C91.678 58.199 91.2339 58.9222 90.8827 59.3533C90.5347 59.7845 90.0973 60.1351 89.6008 60.381C89.097 60.6332 88.5824 60.7592 88.0548 60.7592C87.6351 60.7592 87.2968 60.6612 87.0405 60.4641C86.7853 60.2685 86.611 59.9769 86.5176 59.5894L85.1687 62.1486H81.7701L88.4973 49.392H91.9545V49.3915V49.3915ZM91.209 52.6391C91.5716 51.9491 91.7683 51.5305 91.7947 51.3857C91.8222 51.2394 91.719 51.1663 91.4897 51.1663C91.2645 51.1663 91.0741 51.2509 90.92 51.4189C90.7691 51.5865 90.5237 51.9932 90.1823 52.6391L87.7424 57.2667C87.3876 57.9412 87.1993 58.3609 87.178 58.5295C87.1557 58.6965 87.2569 58.7816 87.482 58.7816C87.702 58.7816 87.8763 58.7059 88.006 58.5539C88.145 58.3972 88.3697 58.0221 88.6851 57.4271L91.209 52.6391V52.6391Z" fill="#060507"/>
</g>
<defs>
<clipPath id="clip0_14_347">
<rect width="100" height="100" fill="white"/>
</clipPath>
</defs>
</svg>
