<svg width="30" height="30" viewBox="0 0 30 30" fill="none" xmlns="http://www.w3.org/2000/svg">
<path d="M0 10.0625C0 6.50318 0 4.72352 0.703666 3.36891C1.29664 2.22739 2.22739 1.29664 3.36891 0.703666C4.72352 0 6.50318 0 10.0625 0H19.9375C23.4968 0 25.2765 0 26.6311 0.703666C27.7726 1.29664 28.7034 2.22739 29.2963 3.36891C30 4.72352 30 6.50318 30 10.0625V19.9375C30 23.4968 30 25.2765 29.2963 26.6311C28.7034 27.7726 27.7726 28.7034 26.6311 29.2963C25.2765 30 23.4968 30 19.9375 30H10.0625C6.50318 30 4.72352 30 3.36891 29.2963C2.22739 28.7034 1.29664 27.7726 0.703666 26.6311C0 25.2765 0 23.4968 0 19.9375V10.0625Z" fill="white"/>
<path d="M6.73366 9.31656C8.17098 9.31656 9.33615 8.15138 9.33615 6.71407C9.33615 5.27675 8.17098 4.11157 6.73366 4.11157C5.29634 4.11157 4.13116 5.27675 4.13116 6.71407C4.13116 8.15138 5.29634 9.31656 6.73366 9.31656Z" fill="#060507"/>
<path d="M11.7196 11.2399H16.0328V13.2158C16.0328 13.2158 17.2032 10.8749 20.3878 10.8749C23.2286 10.8749 25.5819 12.2743 25.5819 16.5399V25.5349H21.1122V17.6299C21.1122 15.1136 19.7688 14.8368 18.7451 14.8368C16.6206 14.8368 16.2569 16.6693 16.2569 17.9581V25.5349H11.7196V11.2399Z" fill="#060507"/>
<path d="M4.465 11.2399H9.00232V25.5349H4.465V11.2399Z" fill="#060507"/>
</svg>
