<svg width="14" height="18" viewBox="0 0 14 18" fill="none" xmlns="http://www.w3.org/2000/svg">
<path fill-rule="evenodd" clip-rule="evenodd" d="M6.99991 8.99344C9.20414 8.99344 10.991 7.17137 10.991 4.92374C10.991 2.6761 9.20414 0.854034 6.99991 0.854034C4.79567 0.854034 3.00879 2.6761 3.00879 4.92374C3.00879 7.17137 4.79567 8.99344 6.99991 8.99344ZM4.19479 9.99344H9.80419C12.1563 10.2119 13.9995 12.228 14 14.6846C14 17.0305 12.318 17.146 10.1165 17.146C9.99774 17.146 9.87733 17.1456 9.75569 17.1452C9.63151 17.1448 9.50604 17.1444 9.37966 17.1444H4.62084C4.49351 17.1444 4.3676 17.1448 4.24318 17.1452C4.12167 17.1456 4.00158 17.146 3.88296 17.146C1.68146 17.146 0 17.0305 0 14.6846C0 12.2285 1.84268 10.2125 4.19479 9.99344Z" fill="white"/>
</svg>
