<svg width="30" height="30" viewBox="0 0 30 30" fill="none" xmlns="http://www.w3.org/2000/svg">
<path d="M0 10.0625C0 6.50318 0 4.72352 0.703666 3.36891C1.29664 2.22739 2.22739 1.29664 3.36891 0.703666C4.72352 0 6.50318 0 10.0625 0H19.9375C23.4968 0 25.2765 0 26.6311 0.703666C27.7726 1.29664 28.7034 2.22739 29.2963 3.36891C30 4.72352 30 6.50318 30 10.0625V19.9375C30 23.4968 30 25.2765 29.2963 26.6311C28.7034 27.7726 27.7726 28.7034 26.6311 29.2963C25.2765 30 23.4968 30 19.9375 30H10.0625C6.50318 30 4.72352 30 3.36891 29.2963C2.22739 28.7034 1.29664 27.7726 0.703666 26.6311C0 25.2765 0 23.4968 0 19.9375V10.0625Z" fill="white"/>
<path fill-rule="evenodd" clip-rule="evenodd" d="M23.3265 11.345C23.3338 11.5324 23.3362 11.7197 23.3362 11.9071C23.3362 17.588 19.34 24.1463 12.0322 24.1463C9.78738 24.1463 7.70002 23.4309 5.94131 22.2129C6.2522 22.247 6.56793 22.2726 6.8885 22.2726C8.74976 22.2726 10.4641 21.5826 11.8239 20.4242C10.0853 20.3987 8.61734 19.1467 8.11105 17.4432C8.3541 17.4943 8.6044 17.52 8.86038 17.52C9.22133 17.52 9.57177 17.4689 9.90769 17.3667C8.08842 16.9749 6.71812 15.2375 6.71812 13.1508C6.71812 13.1252 6.71812 13.1166 6.71812 13.0996C7.2543 13.4147 7.86798 13.6105 8.51962 13.6361C7.45212 12.861 6.75041 11.5409 6.75041 10.0504C6.75041 9.26683 6.94582 8.52581 7.28981 7.88703C9.24877 10.4933 12.1776 12.2052 15.4794 12.3841C15.4116 12.069 15.3768 11.7369 15.3768 11.4047C15.3768 9.02843 17.1557 7.10352 19.3505 7.10352C20.4931 7.10352 21.525 7.62314 22.2493 8.45782C23.1562 8.27044 24.0056 7.91274 24.7744 7.41875C24.4764 8.42377 23.8474 9.26679 23.0253 9.79486C23.8296 9.69265 24.5967 9.46286 25.3081 9.12218C24.7744 9.98241 24.1025 10.7403 23.3265 11.345Z" fill="#060507"/>
</svg>
